<svg xmlns="http://www.w3.org/2000/svg" xmlns:xlink="http://www.w3.org/1999/xlink" id="svg127" width="437.68" height="350" version="1.1" viewBox="0 0 328.26 255.814"><defs id="defs1"><style id="style1" type="text/css">*{stroke-linejoin:round;stroke-linecap:butt}</style></defs><g id="figure_1" transform="translate(-10.396 -22.955)"><g id="axes_1"><g id="matplotlib.axis_1"><g id="xtick_1"><g id="line2d_1"><path id="path3" d="M46.98 249.912V33.696" clip-path="url(#p6ecd00df98)" style="fill:none;stroke:#b0b0b0;stroke-width:.8;stroke-linecap:square"/></g><g id="line2d_2"><defs id="defs3"><path id="m49679f650d" d="M0 0v3.5" style="stroke:#000;stroke-width:.8"/></defs><g id="g3"><use xlink:href="#m49679f650d" id="use3" x="46.98" y="249.912" style="stroke:#000;stroke-width:.8"/></g></g><g id="text_1"><g id="g4" transform="matrix(.1 0 0 -.1 43.799 264.51)"><defs id="defs4"><path id="DejaVuSans-30" d="M2034 4250q-487 0-733-480-245-479-245-1442 0-959 245-1439 246-480 733-480 491 0 736 480 246 480 246 1439 0 963-246 1442-245 480-736 480m0 500q785 0 1199-621 414-620 414-1801 0-1178-414-1799Q2819-91 2034-91q-784 0-1198 620-414 621-414 1799 0 1181 414 1801 414 621 1198 621" transform="scale(.01563)"/></defs><use xlink:href="#DejaVuSans-30" id="use4"/></g></g></g><g id="xtick_2"><g id="line2d_3"><path id="path4" d="M81.676 249.912V33.696" clip-path="url(#p6ecd00df98)" style="fill:none;stroke:#b0b0b0;stroke-width:.8;stroke-linecap:square"/></g><g id="line2d_4"><g id="g5"><use xlink:href="#m49679f650d" id="use5" x="81.676" y="249.912" style="stroke:#000;stroke-width:.8"/></g></g><g id="text_2"><g id="g7" transform="matrix(.1 0 0 -.1 75.314 264.51)"><defs id="defs5"><path id="DejaVuSans-31" d="M794 531h1031v3560L703 3866v575l1116 225h631V531h1031V0H794Z" transform="scale(.01563)"/></defs><use xlink:href="#DejaVuSans-31" id="use6"/><use xlink:href="#DejaVuSans-30" id="use7" x="63.623"/></g></g></g><g id="xtick_3"><g id="line2d_5"><path id="path7" d="M116.373 249.912V33.696" clip-path="url(#p6ecd00df98)" style="fill:none;stroke:#b0b0b0;stroke-width:.8;stroke-linecap:square"/></g><g id="line2d_6"><g id="g8"><use xlink:href="#m49679f650d" id="use8" x="116.373" y="249.912" style="stroke:#000;stroke-width:.8"/></g></g><g id="text_3"><g id="g10" transform="matrix(.1 0 0 -.1 110.01 264.51)"><defs id="defs8"><path id="DejaVuSans-32" d="M1228 531h2203V0H469v531q359 372 979 998 621 627 780 809 303 340 423 576 121 236 121 464 0 372-261 606-261 235-680 235-297 0-627-103-329-103-704-313v638q381 153 712 231 332 78 607 78 725 0 1156-363 431-362 431-968 0-288-108-546-107-257-392-607-78-91-497-524-418-433-1181-1211" transform="scale(.01563)"/></defs><use xlink:href="#DejaVuSans-32" id="use9"/><use xlink:href="#DejaVuSans-30" id="use10" x="63.623"/></g></g></g><g id="xtick_4"><g id="line2d_7"><path id="path10" d="M151.07 249.912V33.696" clip-path="url(#p6ecd00df98)" style="fill:none;stroke:#b0b0b0;stroke-width:.8;stroke-linecap:square"/></g><g id="line2d_8"><g id="g11"><use xlink:href="#m49679f650d" id="use11" x="151.069" y="249.912" style="stroke:#000;stroke-width:.8"/></g></g><g id="text_4"><g id="g13" transform="matrix(.1 0 0 -.1 144.707 264.51)"><defs id="defs11"><path id="DejaVuSans-33" d="M2597 2516q453-97 707-404 255-306 255-756 0-690-475-1069Q2609-91 1734-91q-293 0-604 58T488 141v609q262-153 574-231 313-78 654-78 593 0 904 234t311 681q0 413-289 645-289 233-804 233h-544v519h569q465 0 712 186t247 536q0 359-255 551-254 193-729 193-260 0-557-57-297-56-653-174v562q360 100 674 150t592 50q719 0 1137-327 419-326 419-882 0-388-222-655t-631-370" transform="scale(.01563)"/></defs><use xlink:href="#DejaVuSans-33" id="use12"/><use xlink:href="#DejaVuSans-30" id="use13" x="63.623"/></g></g></g><g id="xtick_5"><g id="line2d_9"><path id="path13" d="M185.765 249.912V33.696" clip-path="url(#p6ecd00df98)" style="fill:none;stroke:#b0b0b0;stroke-width:.8;stroke-linecap:square"/></g><g id="line2d_10"><g id="g14"><use xlink:href="#m49679f650d" id="use14" x="185.765" y="249.912" style="stroke:#000;stroke-width:.8"/></g></g><g id="text_5"><g id="g16" transform="matrix(.1 0 0 -.1 179.403 264.51)"><defs id="defs14"><path id="DejaVuSans-34" d="M2419 4116 825 1625h1594zm-166 550h794V1625h666v-525h-666V0h-628v1100H313v609z" transform="scale(.01563)"/></defs><use xlink:href="#DejaVuSans-34" id="use15"/><use xlink:href="#DejaVuSans-30" id="use16" x="63.623"/></g></g></g><g id="xtick_6"><g id="line2d_11"><path id="path16" d="M220.462 249.912V33.696" clip-path="url(#p6ecd00df98)" style="fill:none;stroke:#b0b0b0;stroke-width:.8;stroke-linecap:square"/></g><g id="line2d_12"><g id="g17"><use xlink:href="#m49679f650d" id="use17" x="220.462" y="249.912" style="stroke:#000;stroke-width:.8"/></g></g><g id="text_6"><g id="g19" transform="matrix(.1 0 0 -.1 214.1 264.51)"><defs id="defs17"><path id="DejaVuSans-35" d="M691 4666h2478v-532H1269V2991q137 47 274 70 138 23 276 23 781 0 1237-428 457-428 457-1159 0-753-469-1171Q2575-91 1722-91q-294 0-599 50Q819 9 494 109v635q281-153 581-228t634-75q541 0 856 284 316 284 316 772 0 487-316 771-315 285-856 285-253 0-505-56-251-56-513-175z" transform="scale(.01563)"/></defs><use xlink:href="#DejaVuSans-35" id="use18"/><use xlink:href="#DejaVuSans-30" id="use19" x="63.623"/></g></g></g><g id="xtick_7"><g id="line2d_13"><path id="path19" d="M255.158 249.912V33.696" clip-path="url(#p6ecd00df98)" style="fill:none;stroke:#b0b0b0;stroke-width:.8;stroke-linecap:square"/></g><g id="line2d_14"><g id="g20"><use xlink:href="#m49679f650d" id="use20" x="255.158" y="249.912" style="stroke:#000;stroke-width:.8"/></g></g><g id="text_7"><g id="g22" transform="matrix(.1 0 0 -.1 248.796 264.51)"><defs id="defs20"><path id="DejaVuSans-36" d="M2113 2584q-425 0-674-291-248-290-248-796 0-503 248-796 249-292 674-292t673 292q248 293 248 796 0 506-248 796-248 291-673 291m1253 1979v-575q-238 112-480 171-242 60-480 60-625 0-955-422-329-422-376-1275 184 272 462 417 279 145 613 145 703 0 1111-427 408-426 408-1160 0-719-425-1154Q2819-91 2113-91q-810 0-1238 620-428 621-428 1799 0 1106 525 1764t1409 658q238 0 480-47t505-140" transform="scale(.01563)"/></defs><use xlink:href="#DejaVuSans-36" id="use21"/><use xlink:href="#DejaVuSans-30" id="use22" x="63.623"/></g></g></g><g id="xtick_8"><g id="line2d_15"><path id="path22" d="M289.855 249.912V33.696" clip-path="url(#p6ecd00df98)" style="fill:none;stroke:#b0b0b0;stroke-width:.8;stroke-linecap:square"/></g><g id="line2d_16"><g id="g23"><use xlink:href="#m49679f650d" id="use23" x="289.855" y="249.912" style="stroke:#000;stroke-width:.8"/></g></g><g id="text_8"><g id="g25" transform="matrix(.1 0 0 -.1 283.492 264.51)"><defs id="defs23"><path id="DejaVuSans-37" d="M525 4666h3000v-269L1831 0h-659l1594 4134H525Z" transform="scale(.01563)"/></defs><use xlink:href="#DejaVuSans-37" id="use24"/><use xlink:href="#DejaVuSans-30" id="use25" x="63.623"/></g></g></g><g id="xtick_9"><g id="line2d_17"><path id="path25" d="M324.55 249.912V33.696" clip-path="url(#p6ecd00df98)" style="fill:none;stroke:#b0b0b0;stroke-width:.8;stroke-linecap:square"/></g><g id="line2d_18"><g id="g26"><use xlink:href="#m49679f650d" id="use26" x="324.551" y="249.912" style="stroke:#000;stroke-width:.8"/></g></g><g id="text_9"><g id="g28" transform="matrix(.1 0 0 -.1 318.188 264.51)"><defs id="defs26"><path id="DejaVuSans-38" d="M2034 2216q-450 0-708-241-257-241-257-662 0-422 257-663 258-241 708-241t709 242q260 243 260 662 0 421-258 662-257 241-711 241m-631 268q-406 100-633 378-226 279-226 679 0 559 398 884 399 325 1092 325 697 0 1094-325t397-884q0-400-227-679-226-278-629-378 456-106 710-416 255-309 255-755 0-679-414-1042Q2806-91 2034-91q-771 0-1186 362-414 363-414 1042 0 446 256 755 257 310 713 416m-231 997q0-362 226-565 227-203 636-203 407 0 636 203 230 203 230 565 0 363-230 566-229 203-636 203-409 0-636-203-226-203-226-566" transform="scale(.01563)"/></defs><use xlink:href="#DejaVuSans-38" id="use27"/><use xlink:href="#DejaVuSans-30" id="use28" x="63.623"/></g></g></g><g id="text_10"><g id="g56" transform="matrix(.1 0 0 -.1 117.459 278.189)"><defs id="defs28"><path id="DejaVuSans-4e" d="M628 4666h850L3547 763v3903h612V0h-850L1241 3903V0H628Z" transform="scale(.01563)"/><path id="DejaVuSans-75" d="M544 1381v2119h575V1403q0-497 193-746 194-248 582-248 465 0 735 297 271 297 271 810v1984h575V0h-575v538q-209-319-486-474-276-155-642-155-603 0-916 375-312 375-312 1097m1447 2203" transform="scale(.01563)"/><path id="DejaVuSans-6d" d="M3328 2828q216 388 516 572t706 184q547 0 844-383 297-382 297-1088V0h-578v2094q0 503-179 746-178 244-543 244-447 0-707-297-259-296-259-809V0h-578v2094q0 506-178 748t-550 242q-441 0-701-298-259-298-259-808V0H581v3500h578v-544q197 322 472 475t653 153q382 0 649-194 267-193 395-562" transform="scale(.01563)"/><path id="DejaVuSans-62" d="M3116 1747q0 634-261 995t-717 361q-457 0-718-361t-261-995 261-995 718-361q456 0 717 361t261 995M1159 2969q182 312 458 463 277 152 661 152 638 0 1036-506 399-506 399-1331T3314 415Q2916-91 2278-91q-384 0-661 152-276 152-458 464V0H581v4863h578z" transform="scale(.01563)"/><path id="DejaVuSans-65" d="M3597 1894v-281H953q38-594 358-905t892-311q331 0 642 81t618 244V178Q3153 47 2828-22t-659-69q-838 0-1327 487-489 488-489 1320 0 859 464 1363 464 505 1252 505 706 0 1117-455 411-454 411-1235m-575 169q-6 471-264 752-258 282-683 282-481 0-770-272t-333-766z" transform="scale(.01563)"/><path id="DejaVuSans-72" d="M2631 2963q-97 56-211 82-114 27-251 27-488 0-749-317t-261-911V0H581v3500h578v-544q182 319 472 473 291 155 707 155 59 0 131-8 72-7 159-23z" transform="scale(.01563)"/><path id="DejaVuSans-6f" d="M1959 3097q-462 0-731-361t-269-989 267-989q268-361 733-361 460 0 728 362 269 363 269 988 0 622-269 986-268 364-728 364m0 487q750 0 1178-488 429-487 429-1349 0-859-429-1349Q2709-91 1959-91q-753 0-1180 489-426 490-426 1349 0 862 426 1349 427 488 1180 488" transform="scale(.01563)"/><path id="DejaVuSans-66" d="M2375 4863v-479h-550q-309 0-430-125-120-125-120-450v-309h947v-447h-947V0H697v3053H147v447h550v244q0 584 272 851 272 268 862 268z" transform="scale(.01563)"/><path id="DejaVuSans-67" d="M2906 1791q0 625-258 968-257 344-723 344-462 0-720-344-258-343-258-968 0-622 258-966t720-344q466 0 723 344 258 344 258 966m575-1357q0-893-397-1329-396-436-1215-436-303 0-572 45t-522 139v559q253-137 500-202 247-66 503-66 566 0 847 295t281 892v285q-178-310-456-463T1784 0Q1141 0 747 490 353 981 353 1791q0 812 394 1302 394 491 1037 491 388 0 666-153t456-462v531h575z" transform="scale(.01563)"/><path id="DejaVuSans-79" d="M2059-325q-243-625-475-815-231-191-618-191H506v481h338q237 0 368 113 132 112 291 531l103 262L191 3500h609L1894 763l1094 2737h609z" transform="scale(.01563)"/><path id="DejaVuSans-61" d="M2194 1759q-697 0-966-159t-269-544q0-306 202-486 202-179 548-179 479 0 768 339t289 901v128zm1147 238V0h-575v531q-197-318-491-470T1556-91q-537 0-855 302-317 302-317 808 0 590 395 890 396 300 1180 300h807v57q0 397-261 614t-733 217q-300 0-585-72-284-72-546-216v532q315 122 612 182 297 61 578 61 760 0 1135-394 375-393 375-1193" transform="scale(.01563)"/><path id="DejaVuSans-74" d="M1172 4494v-994h1184v-447H1172V1153q0-428 117-550t477-122h590V0h-590q-666 0-919 248-253 249-253 905v1900H172v447h422v994z" transform="scale(.01563)"/><path id="DejaVuSans-70" d="M1159 525v-1856H581v4831h578v-531q182 312 458 463 277 152 661 152 638 0 1036-506 399-506 399-1331T3314 415Q2916-91 2278-91q-384 0-661 152-276 152-458 464m1957 1222q0 634-261 995t-717 361q-457 0-718-361t-261-995 261-995 718-361q456 0 717 361t261 995" transform="scale(.01563)"/><path id="DejaVuSans-73" d="M2834 3397v-544q-243 125-506 187-262 63-544 63-428 0-642-131t-214-394q0-200 153-314t616-217l197-44q612-131 870-370t258-667q0-488-386-773Q2250-91 1575-91q-281 0-586 55T347 128v594q319-166 628-249 309-82 613-82 406 0 624 139 219 139 219 392 0 234-158 359-157 125-692 241l-200 47q-534 112-772 345-237 233-237 639 0 494 350 762 350 269 994 269 318 0 599-47 282-46 519-140" transform="scale(.01563)"/></defs><use xlink:href="#DejaVuSans-4e" id="use29"/><use xlink:href="#DejaVuSans-75" id="use30" x="74.805"/><use xlink:href="#DejaVuSans-6d" id="use31" x="138.184"/><use xlink:href="#DejaVuSans-62" id="use32" x="235.596"/><use xlink:href="#DejaVuSans-65" id="use33" x="299.072"/><use xlink:href="#DejaVuSans-72" id="use34" x="360.596"/><use xlink:href="#DejaVuSans-6f" id="use36" x="433.496"/><use xlink:href="#DejaVuSans-66" id="use37" x="494.678"/><use xlink:href="#DejaVuSans-66" id="use39" x="561.67"/><use xlink:href="#DejaVuSans-6f" id="use40" x="596.875"/><use xlink:href="#DejaVuSans-72" id="use41" x="658.057"/><use xlink:href="#DejaVuSans-67" id="use42" x="697.42"/><use xlink:href="#DejaVuSans-65" id="use43" x="760.896"/><use xlink:href="#DejaVuSans-72" id="use44" x="822.42"/><use xlink:href="#DejaVuSans-79" id="use45" x="863.533"/><use xlink:href="#DejaVuSans-61" id="use47" x="954.5"/><use xlink:href="#DejaVuSans-74" id="use48" x="1015.779"/><use xlink:href="#DejaVuSans-74" id="use49" x="1054.988"/><use xlink:href="#DejaVuSans-65" id="use50" x="1094.197"/><use xlink:href="#DejaVuSans-6d" id="use51" x="1155.721"/><use xlink:href="#DejaVuSans-70" id="use52" x="1253.133"/><use xlink:href="#DejaVuSans-74" id="use53" x="1316.609"/><use xlink:href="#DejaVuSans-73" id="use54" x="1355.818"/><use xlink:href="#DejaVuSans-70" id="use56" x="1439.705"/></g></g></g><g id="matplotlib.axis_2"><g id="ytick_1"><g id="line2d_19"><path id="path56" d="M46.98 249.912h291.276" clip-path="url(#p6ecd00df98)" style="fill:none;stroke:#b0b0b0;stroke-width:.8;stroke-linecap:square"/></g><g id="line2d_20"><defs id="defs56"><path id="m4d09f472ed" d="M0 0h-3.5" style="stroke:#000;stroke-width:.8"/></defs><g id="g57"><use xlink:href="#m4d09f472ed" id="use57" x="46.98" y="249.912" style="stroke:#000;stroke-width:.8"/></g></g><g id="text_11"><g id="g60" transform="matrix(.1 0 0 -.1 24.077 253.711)"><defs id="defs57"><path id="DejaVuSans-2e" d="M684 794h660V0H684Z" transform="scale(.01563)"/></defs><use xlink:href="#DejaVuSans-30" id="use58"/><use xlink:href="#DejaVuSans-2e" id="use59" x="63.623"/><use xlink:href="#DejaVuSans-30" id="use60" x="95.41"/></g></g></g><g id="ytick_2"><g id="line2d_21"><path id="path60" d="M46.98 208.678h291.276" clip-path="url(#p6ecd00df98)" style="fill:none;stroke:#b0b0b0;stroke-width:.8;stroke-linecap:square"/></g><g id="line2d_22"><g id="g61"><use xlink:href="#m4d09f472ed" id="use61" x="46.98" y="208.678" style="stroke:#000;stroke-width:.8"/></g></g><g id="text_12"><g id="g64" transform="matrix(.1 0 0 -.1 24.077 212.478)"><use xlink:href="#DejaVuSans-30" id="use62"/><use xlink:href="#DejaVuSans-2e" id="use63" x="63.623"/><use xlink:href="#DejaVuSans-32" id="use64" x="95.41"/></g></g></g><g id="ytick_3"><g id="line2d_23"><path id="path64" d="M46.98 167.445h291.276" clip-path="url(#p6ecd00df98)" style="fill:none;stroke:#b0b0b0;stroke-width:.8;stroke-linecap:square"/></g><g id="line2d_24"><g id="g65"><use xlink:href="#m4d09f472ed" id="use65" x="46.98" y="167.445" style="stroke:#000;stroke-width:.8"/></g></g><g id="text_13"><g id="g68" transform="matrix(.1 0 0 -.1 24.077 171.244)"><use xlink:href="#DejaVuSans-30" id="use66"/><use xlink:href="#DejaVuSans-2e" id="use67" x="63.623"/><use xlink:href="#DejaVuSans-34" id="use68" x="95.41"/></g></g></g><g id="ytick_4"><g id="line2d_25"><path id="path68" d="M46.98 126.21h291.276" clip-path="url(#p6ecd00df98)" style="fill:none;stroke:#b0b0b0;stroke-width:.8;stroke-linecap:square"/></g><g id="line2d_26"><g id="g69"><use xlink:href="#m4d09f472ed" id="use69" x="46.98" y="126.211" style="stroke:#000;stroke-width:.8"/></g></g><g id="text_14"><g id="g72" transform="matrix(.1 0 0 -.1 24.077 130.01)"><use xlink:href="#DejaVuSans-30" id="use70"/><use xlink:href="#DejaVuSans-2e" id="use71" x="63.623"/><use xlink:href="#DejaVuSans-36" id="use72" x="95.41"/></g></g></g><g id="ytick_5"><g id="line2d_27"><path id="path72" d="M46.98 84.977h291.276" clip-path="url(#p6ecd00df98)" style="fill:none;stroke:#b0b0b0;stroke-width:.8;stroke-linecap:square"/></g><g id="line2d_28"><g id="g73"><use xlink:href="#m4d09f472ed" id="use73" x="46.98" y="84.977" style="stroke:#000;stroke-width:.8"/></g></g><g id="text_15"><g id="g76" transform="matrix(.1 0 0 -.1 24.077 88.776)"><use xlink:href="#DejaVuSans-30" id="use74"/><use xlink:href="#DejaVuSans-2e" id="use75" x="63.623"/><use xlink:href="#DejaVuSans-38" id="use76" x="95.41"/></g></g></g><g id="ytick_6"><g id="line2d_29"><path id="path76" d="M46.98 43.743h291.276" clip-path="url(#p6ecd00df98)" style="fill:none;stroke:#b0b0b0;stroke-width:.8;stroke-linecap:square"/></g><g id="line2d_30"><g id="g77"><use xlink:href="#m4d09f472ed" id="use77" x="46.98" y="43.743" style="stroke:#000;stroke-width:.8"/></g></g><g id="text_16"><g id="g80" transform="matrix(.1 0 0 -.1 24.077 47.543)"><use xlink:href="#DejaVuSans-31" id="use78"/><use xlink:href="#DejaVuSans-2e" id="use79" x="63.623"/><use xlink:href="#DejaVuSans-30" id="use80" x="95.41"/></g></g></g><g id="text_17"><g id="g99" transform="matrix(0 -.1 -.1 0 17.997 190.196)"><defs id="defs80"><path id="DejaVuSans-53" d="M3425 4513v-616q-359 172-678 256-319 85-616 85-515 0-795-200t-280-569q0-310 186-468 186-157 705-254l381-78q706-135 1042-474t336-907q0-679-455-1029Q2797-91 1919-91q-331 0-705 75-373 75-773 222v650q384-215 753-325 369-109 725-109 540 0 834 212 294 213 294 607 0 343-211 537t-692 291l-385 75q-706 140-1022 440-315 300-315 835 0 619 436 975t1201 356q329 0 669-60 341-59 697-177" transform="scale(.01563)"/><path id="DejaVuSans-63" d="M3122 3366v-538q-244 135-489 202t-495 67q-560 0-870-355-309-354-309-995t309-996q310-354 870-354 250 0 495 67t489 202V134Q2881 22 2623-34q-257-57-548-57-791 0-1257 497-465 497-465 1341 0 856 470 1346 471 491 1290 491 265 0 518-55 253-54 491-163" transform="scale(.01563)"/><path id="DejaVuSans-69" d="M603 3500h575V0H603Zm0 1363h575v-729H603Z" transform="scale(.01563)"/><path id="DejaVuSans-6c" d="M603 4863h575V0H603Z" transform="scale(.01563)"/></defs><use xlink:href="#DejaVuSans-53" id="use81"/><use xlink:href="#DejaVuSans-75" id="use82" x="63.477"/><use xlink:href="#DejaVuSans-63" id="use83" x="126.855"/><use xlink:href="#DejaVuSans-63" id="use84" x="181.836"/><use xlink:href="#DejaVuSans-65" id="use85" x="236.816"/><use xlink:href="#DejaVuSans-73" id="use86" x="298.34"/><use xlink:href="#DejaVuSans-73" id="use87" x="350.439"/><use xlink:href="#DejaVuSans-70" id="use89" x="434.326"/><use xlink:href="#DejaVuSans-72" id="use90" x="497.803"/><use xlink:href="#DejaVuSans-6f" id="use91" x="536.666"/><use xlink:href="#DejaVuSans-62" id="use92" x="597.848"/><use xlink:href="#DejaVuSans-61" id="use93" x="661.324"/><use xlink:href="#DejaVuSans-62" id="use94" x="722.604"/><use xlink:href="#DejaVuSans-69" id="use95" x="786.08"/><use xlink:href="#DejaVuSans-6c" id="use96" x="813.863"/><use xlink:href="#DejaVuSans-69" id="use97" x="841.646"/><use xlink:href="#DejaVuSans-74" id="use98" x="869.43"/><use xlink:href="#DejaVuSans-79" id="use99" x="908.639"/></g></g></g><g id="line2d_31"><path id="path99" d="m50.45 244.693 3.47-1.305 3.469-2.61 3.47-1.305 3.47-2.61 3.469-3.914 3.47-2.61 3.47-2.61h3.469l3.47-9.134 3.469-2.61 3.47-3.914 3.47-2.61 3.469-1.305 3.47-1.305 3.47-3.914 3.469-2.61 3.47-1.305 3.47-2.61 3.469-1.304 3.47-1.305 3.469-1.305h3.47l3.47-6.524 3.469-3.915 3.47-1.305 3.47-2.61 3.469-1.304 3.47-2.61 3.47-3.915 3.469-2.61 3.47-1.304 3.469-1.305 3.47-1.305 3.47-1.305h10.409l3.469-1.305 3.47-2.61h3.47l3.469-2.61h3.47l3.469-5.219 3.47-1.305 3.47-6.524h10.409l3.469-1.305h6.94l3.469-2.61 3.47-1.304h3.469l3.47-2.61 3.47-1.305h3.469l3.47-1.305 3.47-2.61 3.469-3.914h3.47l3.47-1.305h3.469l3.47-1.305 3.469-1.305 3.47-1.305 3.47-3.914h6.939l3.47-1.305 3.469-1.305h3.47l3.47-1.305 3.469-2.61 3.47-1.304h3.469l3.47-3.915h3.47l3.469-1.305" clip-path="url(#p6ecd00df98)" style="fill:none;stroke:#1f77b4;stroke-width:1.5;stroke-linecap:square"/></g><g id="line2d_32"><path id="path100" d="m50.45 244.693 3.47-10.44 3.469-5.219 3.47-3.914 3.47-1.305 3.469-3.915 3.47-2.61 3.47-5.22 3.469-5.219 3.47-5.219 3.469-6.524 3.47-6.525 3.47-2.61 3.469-5.219 3.47-2.61 3.47-7.829 3.469-6.524 3.47-3.915 3.47-5.22 3.469-2.609 3.47-2.61 3.469-7.829h3.47l3.47-3.914 3.469-2.61 3.47-3.915 3.47-1.305 3.469-2.61 3.47-1.304 3.47-1.305 3.469-1.305 3.47-2.61 3.469-5.219 3.47-1.305h3.47l3.469-2.61 3.47-2.61 3.47-7.829 3.469-1.304 3.47-1.305h6.939l3.47-2.61 3.469-1.305h3.47l3.47-3.914h10.409l3.469-3.915 3.47-1.305 3.47-3.914h3.469l3.47-1.305 3.469-1.305 3.47-1.305 3.47-2.61 3.469-2.61 3.47-1.304 3.47-1.305h17.348l3.469-1.305h3.47l3.47-2.61h17.348l3.47-2.61 3.469-1.304h10.409l3.47-1.305 3.469-1.305" clip-path="url(#p6ecd00df98)" style="fill:none;stroke:#ff7f0e;stroke-width:1.5;stroke-linecap:square"/></g><g id="line2d_33"><path id="path101" d="m50.45 229.034 3.47-22.183 3.469-16.963 3.47-19.573 3.47-16.963 3.469-11.744 3.47-13.048 3.47-10.44 3.469-5.219 3.47-9.134 3.469-5.22 3.47-2.609 3.47-3.915 3.469-6.524 3.47-1.305 3.47-5.22 3.469-6.524 3.47-2.61 3.47-1.304 3.469-5.22 3.47-1.304 3.469-1.305 3.47-2.61 3.47-1.305 3.469-1.305 3.47-2.61 3.47-2.61h3.469l3.47-2.609 3.47-1.305h48.574l3.47-1.305h10.409l3.47-1.305H324.55" clip-path="url(#p6ecd00df98)" style="fill:none;stroke:#2ca02c;stroke-width:1.5;stroke-linecap:square"/></g><g id="line2d_34"><path id="path102" d="m50.45 191.193 3.47-33.926 3.469-28.707 3.47-27.403 3.47-11.743 3.469-10.44 3.47-6.524 3.47-5.219 3.469-3.915 3.47-2.61 3.469-2.609 3.47-3.915h3.47l3.469-2.61 3.47-1.304h3.47l3.469-1.305 3.47-1.305 3.47-1.305 3.469-2.61H324.55" clip-path="url(#p6ecd00df98)" style="fill:none;stroke:#d62728;stroke-width:1.5;stroke-linecap:square"/></g><g id="line2d_35"><path id="path103" d="m50.45 149.437 3.47-66.548 3.469-20.877 3.47-13.05 3.47-1.304 3.469-1.305 3.47-1.305h6.939l3.47-1.305H324.55" clip-path="url(#p6ecd00df98)" style="fill:none;stroke:#9467bd;stroke-width:1.5;stroke-linecap:square"/></g><g id="line2d_36"><path id="path104" d="m50.45 73.755 3.47-23.487 3.469-6.525H324.55" clip-path="url(#p6ecd00df98)" style="fill:none;stroke:#8c564b;stroke-width:1.5;stroke-linecap:square"/></g><g id="patch_3"><path id="path105" d="M46.98 249.912V33.696" style="fill:none;stroke:#000;stroke-width:.8;stroke-linecap:square;stroke-linejoin:miter"/></g><g id="patch_4"><path id="path106" d="M338.256 249.912V33.696" style="fill:none;stroke:#000;stroke-width:.8;stroke-linecap:square;stroke-linejoin:miter"/></g><g id="patch_5"><path id="path107" d="M46.98 249.912h291.276" style="fill:none;stroke:#000;stroke-width:.8;stroke-linecap:square;stroke-linejoin:miter"/></g><g id="patch_6"><path id="path108" d="M46.98 33.696h291.276" style="fill:none;stroke:#000;stroke-width:.8;stroke-linecap:square;stroke-linejoin:miter"/></g><g id="legend_1"><g id="patch_7"><path id="path109" d="M280.169 244.912h51.087q2 0 2-2V141.165q0-2-2-2h-51.087q-2 0-2 2v101.747q0 2 2 2z" style="opacity:.8;fill:#fff;stroke:#ccc;stroke-linejoin:miter"/></g><g id="text_18"><g id="g109" transform="matrix(.1 0 0 -.1 302.538 150.764)"><defs id="defs109"><path id="DejaVuSans-71" d="M947 1747q0-634 261-995t717-361 718 361q263 361 263 995t-263 995q-262 361-718 361t-717-361-261-995M2906 525q-181-312-458-464-276-152-664-152-634 0-1033 506-398 507-398 1332t398 1331q399 506 1033 506 388 0 664-152 277-151 458-463v531h575v-4831h-575z" transform="scale(.01563)"/></defs><use xlink:href="#DejaVuSans-71" id="use109"/></g></g><g id="line2d_37"><path id="path110" d="M282.169 161.942h20" style="fill:none;stroke:#1f77b4;stroke-width:1.5;stroke-linecap:square"/></g><g id="text_19"><g id="g112" transform="matrix(.1 0 0 -.1 310.168 165.442)"><use xlink:href="#DejaVuSans-31" id="use110"/><use xlink:href="#DejaVuSans-32" id="use111" x="63.623"/><use xlink:href="#DejaVuSans-38" id="use112" x="127.246"/></g></g><g id="line2d_38"><path id="path112" d="M282.169 176.62h20" style="fill:none;stroke:#ff7f0e;stroke-width:1.5;stroke-linecap:square"/></g><g id="text_20"><g id="g115" transform="matrix(.1 0 0 -.1 310.168 180.12)"><use xlink:href="#DejaVuSans-31" id="use113"/><use xlink:href="#DejaVuSans-36" id="use114" x="63.623"/><use xlink:href="#DejaVuSans-30" id="use115" x="127.246"/></g></g><g id="line2d_39"><path id="path115" d="M282.169 191.298h20" style="fill:none;stroke:#2ca02c;stroke-width:1.5;stroke-linecap:square"/></g><g id="text_21"><g id="g118" transform="matrix(.1 0 0 -.1 310.168 194.798)"><use xlink:href="#DejaVuSans-32" id="use116"/><use xlink:href="#DejaVuSans-34" id="use117" x="63.623"/><use xlink:href="#DejaVuSans-30" id="use118" x="127.246"/></g></g><g id="line2d_40"><path id="path118" d="M282.169 205.976h20" style="fill:none;stroke:#d62728;stroke-width:1.5;stroke-linecap:square"/></g><g id="text_22"><g id="g121" transform="matrix(.1 0 0 -.1 310.168 209.476)"><use xlink:href="#DejaVuSans-33" id="use119"/><use xlink:href="#DejaVuSans-32" id="use120" x="63.623"/><use xlink:href="#DejaVuSans-30" id="use121" x="127.246"/></g></g><g id="line2d_41"><path id="path121" d="M282.169 220.654h20" style="fill:none;stroke:#9467bd;stroke-width:1.5;stroke-linecap:square"/></g><g id="text_23"><g id="g124" transform="matrix(.1 0 0 -.1 310.168 224.154)"><use xlink:href="#DejaVuSans-34" id="use122"/><use xlink:href="#DejaVuSans-38" id="use123" x="63.623"/><use xlink:href="#DejaVuSans-30" id="use124" x="127.246"/></g></g><g id="line2d_42"><path id="path124" d="M282.169 235.332h20" style="fill:none;stroke:#8c564b;stroke-width:1.5;stroke-linecap:square"/></g><g id="text_24"><g id="g127" transform="matrix(.1 0 0 -.1 310.168 238.832)"><use xlink:href="#DejaVuSans-38" id="use125"/><use xlink:href="#DejaVuSans-30" id="use126" x="63.623"/><use xlink:href="#DejaVuSans-30" id="use127" x="127.246"/></g></g></g></g></g><defs id="defs127"><clipPath id="p6ecd00df98"><path id="rect127" d="M46.98 33.696h291.276v216.216H46.98Z"/></clipPath></defs><text xml:space="preserve" id="text1" x="35.962" y="8.535" style="font-size:14.0364px;fill:#000;stroke-width:1.1697"><tspan id="tspan2" x="35.962" y="8.535" style="stroke-width:1.1697">SPHICNS-PLUS Attack Performance</tspan></text></svg>