<svg xmlns="http://www.w3.org/2000/svg" xmlns:xlink="http://www.w3.org/1999/xlink" id="svg127" width="416.104" height="370.42" version="1.1" viewBox="0 0 312.078 271.815"><defs id="defs1"><style id="style1" type="text/css">*{stroke-linejoin:round;stroke-linecap:butt}</style></defs><g id="figure_1" transform="translate(-7.786 -26.397)"><g id="axes_1"><g id="matplotlib.axis_1"><g id="xtick_1"><g id="line2d_1"><path id="path3" d="M44.37 267.854V36.115" clip-path="url(#p90ecd5b36e)" style="fill:none;stroke:#b0b0b0;stroke-width:.8;stroke-linecap:square"/></g><g id="line2d_2"><defs id="defs3"><path id="m3552b27e98" d="M0 0v3.5" style="stroke:#000;stroke-width:.8"/></defs><g id="g3"><use xlink:href="#m3552b27e98" id="use3" x="44.37" y="267.854" style="stroke:#000;stroke-width:.8"/></g></g><g id="text_1"><g id="g4" transform="matrix(.1 0 0 -.1 41.189 282.453)"><defs id="defs4"><path id="DejaVuSans-30" d="M2034 4250q-487 0-733-480-245-479-245-1442 0-959 245-1439 246-480 733-480 491 0 736 480 246 480 246 1439 0 963-246 1442-245 480-736 480m0 500q785 0 1199-621 414-620 414-1801 0-1178-414-1799Q2819-91 2034-91q-784 0-1198 620-414 621-414 1799 0 1181 414 1801 414 621 1198 621" transform="scale(.01563)"/></defs><use xlink:href="#DejaVuSans-30" id="use4"/></g></g></g><g id="xtick_2"><g id="line2d_3"><path id="path4" d="M77.14 267.854V36.115" clip-path="url(#p90ecd5b36e)" style="fill:none;stroke:#b0b0b0;stroke-width:.8;stroke-linecap:square"/></g><g id="line2d_4"><g id="g5"><use xlink:href="#m3552b27e98" id="use5" x="77.14" y="267.854" style="stroke:#000;stroke-width:.8"/></g></g><g id="text_2"><g id="g8" transform="matrix(.1 0 0 -.1 67.596 282.453)"><defs id="defs5"><path id="DejaVuSans-32" d="M1228 531h2203V0H469v531q359 372 979 998 621 627 780 809 303 340 423 576 121 236 121 464 0 372-261 606-261 235-680 235-297 0-627-103-329-103-704-313v638q381 153 712 231 332 78 607 78 725 0 1156-363 431-362 431-968 0-288-108-546-107-257-392-607-78-91-497-524-418-433-1181-1211" transform="scale(.01563)"/></defs><use xlink:href="#DejaVuSans-32" id="use6"/><use xlink:href="#DejaVuSans-30" id="use7" x="63.623"/><use xlink:href="#DejaVuSans-30" id="use8" x="127.246"/></g></g></g><g id="xtick_3"><g id="line2d_5"><path id="path8" d="M109.91 267.854V36.115" clip-path="url(#p90ecd5b36e)" style="fill:none;stroke:#b0b0b0;stroke-width:.8;stroke-linecap:square"/></g><g id="line2d_6"><g id="g9"><use xlink:href="#m3552b27e98" id="use9" x="109.91" y="267.854" style="stroke:#000;stroke-width:.8"/></g></g><g id="text_3"><g id="g12" transform="matrix(.1 0 0 -.1 100.366 282.453)"><defs id="defs9"><path id="DejaVuSans-34" d="M2419 4116 825 1625h1594zm-166 550h794V1625h666v-525h-666V0h-628v1100H313v609z" transform="scale(.01563)"/></defs><use xlink:href="#DejaVuSans-34" id="use10"/><use xlink:href="#DejaVuSans-30" id="use11" x="63.623"/><use xlink:href="#DejaVuSans-30" id="use12" x="127.246"/></g></g></g><g id="xtick_4"><g id="line2d_7"><path id="path12" d="M142.68 267.854V36.115" clip-path="url(#p90ecd5b36e)" style="fill:none;stroke:#b0b0b0;stroke-width:.8;stroke-linecap:square"/></g><g id="line2d_8"><g id="g13"><use xlink:href="#m3552b27e98" id="use13" x="142.679" y="267.854" style="stroke:#000;stroke-width:.8"/></g></g><g id="text_4"><g id="g16" transform="matrix(.1 0 0 -.1 133.136 282.453)"><defs id="defs13"><path id="DejaVuSans-36" d="M2113 2584q-425 0-674-291-248-290-248-796 0-503 248-796 249-292 674-292t673 292q248 293 248 796 0 506-248 796-248 291-673 291m1253 1979v-575q-238 112-480 171-242 60-480 60-625 0-955-422-329-422-376-1275 184 272 462 417 279 145 613 145 703 0 1111-427 408-426 408-1160 0-719-425-1154Q2819-91 2113-91q-810 0-1238 620-428 621-428 1799 0 1106 525 1764t1409 658q238 0 480-47t505-140" transform="scale(.01563)"/></defs><use xlink:href="#DejaVuSans-36" id="use14"/><use xlink:href="#DejaVuSans-30" id="use15" x="63.623"/><use xlink:href="#DejaVuSans-30" id="use16" x="127.246"/></g></g></g><g id="xtick_5"><g id="line2d_9"><path id="path16" d="M175.45 267.854V36.115" clip-path="url(#p90ecd5b36e)" style="fill:none;stroke:#b0b0b0;stroke-width:.8;stroke-linecap:square"/></g><g id="line2d_10"><g id="g17"><use xlink:href="#m3552b27e98" id="use17" x="175.449" y="267.854" style="stroke:#000;stroke-width:.8"/></g></g><g id="text_5"><g id="g20" transform="matrix(.1 0 0 -.1 165.905 282.453)"><defs id="defs17"><path id="DejaVuSans-38" d="M2034 2216q-450 0-708-241-257-241-257-662 0-422 257-663 258-241 708-241t709 242q260 243 260 662 0 421-258 662-257 241-711 241m-631 268q-406 100-633 378-226 279-226 679 0 559 398 884 399 325 1092 325 697 0 1094-325t397-884q0-400-227-679-226-278-629-378 456-106 710-416 255-309 255-755 0-679-414-1042Q2806-91 2034-91q-771 0-1186 362-414 363-414 1042 0 446 256 755 257 310 713 416m-231 997q0-362 226-565 227-203 636-203 407 0 636 203 230 203 230 565 0 363-230 566-229 203-636 203-409 0-636-203-226-203-226-566" transform="scale(.01563)"/></defs><use xlink:href="#DejaVuSans-38" id="use18"/><use xlink:href="#DejaVuSans-30" id="use19" x="63.623"/><use xlink:href="#DejaVuSans-30" id="use20" x="127.246"/></g></g></g><g id="xtick_6"><g id="line2d_11"><path id="path20" d="M208.219 267.854V36.115" clip-path="url(#p90ecd5b36e)" style="fill:none;stroke:#b0b0b0;stroke-width:.8;stroke-linecap:square"/></g><g id="line2d_12"><g id="g21"><use xlink:href="#m3552b27e98" id="use21" x="208.219" y="267.854" style="stroke:#000;stroke-width:.8"/></g></g><g id="text_6"><g id="g25" transform="matrix(.1 0 0 -.1 195.494 282.453)"><defs id="defs21"><path id="DejaVuSans-31" d="M794 531h1031v3560L703 3866v575l1116 225h631V531h1031V0H794Z" transform="scale(.01563)"/></defs><use xlink:href="#DejaVuSans-31" id="use22"/><use xlink:href="#DejaVuSans-30" id="use23" x="63.623"/><use xlink:href="#DejaVuSans-30" id="use24" x="127.246"/><use xlink:href="#DejaVuSans-30" id="use25" x="190.869"/></g></g></g><g id="xtick_7"><g id="line2d_13"><path id="path25" d="M240.989 267.854V36.115" clip-path="url(#p90ecd5b36e)" style="fill:none;stroke:#b0b0b0;stroke-width:.8;stroke-linecap:square"/></g><g id="line2d_14"><g id="g26"><use xlink:href="#m3552b27e98" id="use26" x="240.989" y="267.854" style="stroke:#000;stroke-width:.8"/></g></g><g id="text_7"><g id="g30" transform="matrix(.1 0 0 -.1 228.264 282.453)"><use xlink:href="#DejaVuSans-31" id="use27"/><use xlink:href="#DejaVuSans-32" id="use28" x="63.623"/><use xlink:href="#DejaVuSans-30" id="use29" x="127.246"/><use xlink:href="#DejaVuSans-30" id="use30" x="190.869"/></g></g></g><g id="xtick_8"><g id="line2d_15"><path id="path30" d="M273.758 267.854V36.115" clip-path="url(#p90ecd5b36e)" style="fill:none;stroke:#b0b0b0;stroke-width:.8;stroke-linecap:square"/></g><g id="line2d_16"><g id="g31"><use xlink:href="#m3552b27e98" id="use31" x="273.758" y="267.854" style="stroke:#000;stroke-width:.8"/></g></g><g id="text_8"><g id="g35" transform="matrix(.1 0 0 -.1 261.033 282.453)"><use xlink:href="#DejaVuSans-31" id="use32"/><use xlink:href="#DejaVuSans-34" id="use33" x="63.623"/><use xlink:href="#DejaVuSans-30" id="use34" x="127.246"/><use xlink:href="#DejaVuSans-30" id="use35" x="190.869"/></g></g></g><g id="xtick_9"><g id="line2d_17"><path id="path35" d="M306.528 267.854V36.115" clip-path="url(#p90ecd5b36e)" style="fill:none;stroke:#b0b0b0;stroke-width:.8;stroke-linecap:square"/></g><g id="line2d_18"><g id="g36"><use xlink:href="#m3552b27e98" id="use36" x="306.528" y="267.854" style="stroke:#000;stroke-width:.8"/></g></g><g id="text_9"><g id="g40" transform="matrix(.1 0 0 -.1 293.803 282.453)"><use xlink:href="#DejaVuSans-31" id="use37"/><use xlink:href="#DejaVuSans-36" id="use38" x="63.623"/><use xlink:href="#DejaVuSans-30" id="use39" x="127.246"/><use xlink:href="#DejaVuSans-30" id="use40" x="190.869"/></g></g></g><g id="text_10"><g id="g69" transform="matrix(.1 0 0 -.1 107.026 296.131)"><defs id="defs40"><path id="DejaVuSans-4e" d="M628 4666h850L3547 763v3903h612V0h-850L1241 3903V0H628Z" transform="scale(.01563)"/><path id="DejaVuSans-75" d="M544 1381v2119h575V1403q0-497 193-746 194-248 582-248 465 0 735 297 271 297 271 810v1984h575V0h-575v538q-209-319-486-474-276-155-642-155-603 0-916 375-312 375-312 1097m1447 2203" transform="scale(.01563)"/><path id="DejaVuSans-6d" d="M3328 2828q216 388 516 572t706 184q547 0 844-383 297-382 297-1088V0h-578v2094q0 503-179 746-178 244-543 244-447 0-707-297-259-296-259-809V0h-578v2094q0 506-178 748t-550 242q-441 0-701-298-259-298-259-808V0H581v3500h578v-544q197 322 472 475t653 153q382 0 649-194 267-193 395-562" transform="scale(.01563)"/><path id="DejaVuSans-62" d="M3116 1747q0 634-261 995t-717 361q-457 0-718-361t-261-995 261-995 718-361q456 0 717 361t261 995M1159 2969q182 312 458 463 277 152 661 152 638 0 1036-506 399-506 399-1331T3314 415Q2916-91 2278-91q-384 0-661 152-276 152-458 464V0H581v4863h578z" transform="scale(.01563)"/><path id="DejaVuSans-65" d="M3597 1894v-281H953q38-594 358-905t892-311q331 0 642 81t618 244V178Q3153 47 2828-22t-659-69q-838 0-1327 487-489 488-489 1320 0 859 464 1363 464 505 1252 505 706 0 1117-455 411-454 411-1235m-575 169q-6 471-264 752-258 282-683 282-481 0-770-272t-333-766z" transform="scale(.01563)"/><path id="DejaVuSans-72" d="M2631 2963q-97 56-211 82-114 27-251 27-488 0-749-317t-261-911V0H581v3500h578v-544q182 319 472 473 291 155 707 155 59 0 131-8 72-7 159-23z" transform="scale(.01563)"/><path id="DejaVuSans-6f" d="M1959 3097q-462 0-731-361t-269-989 267-989q268-361 733-361 460 0 728 362 269 363 269 988 0 622-269 986-268 364-728 364m0 487q750 0 1178-488 429-487 429-1349 0-859-429-1349Q2709-91 1959-91q-753 0-1180 489-426 490-426 1349 0 862 426 1349 427 488 1180 488" transform="scale(.01563)"/><path id="DejaVuSans-66" d="M2375 4863v-479h-550q-309 0-430-125-120-125-120-450v-309h947v-447h-947V0H697v3053H147v447h550v244q0 584 272 851 272 268 862 268z" transform="scale(.01563)"/><path id="DejaVuSans-61" d="M2194 1759q-697 0-966-159t-269-544q0-306 202-486 202-179 548-179 479 0 768 339t289 901v128zm1147 238V0h-575v531q-197-318-491-470T1556-91q-537 0-855 302-317 302-317 808 0 590 395 890 396 300 1180 300h807v57q0 397-261 614t-733 217q-300 0-585-72-284-72-546-216v532q315 122 612 182 297 61 578 61 760 0 1135-394 375-393 375-1193" transform="scale(.01563)"/><path id="DejaVuSans-6c" d="M603 4863h575V0H603Z" transform="scale(.01563)"/><path id="DejaVuSans-74" d="M1172 4494v-994h1184v-447H1172V1153q0-428 117-550t477-122h590V0h-590q-666 0-919 248-253 249-253 905v1900H172v447h422v994z" transform="scale(.01563)"/><path id="DejaVuSans-79" d="M2059-325q-243-625-475-815-231-191-618-191H506v481h338q237 0 368 113 132 112 291 531l103 262L191 3500h609L1894 763l1094 2737h609z" transform="scale(.01563)"/><path id="DejaVuSans-73" d="M2834 3397v-544q-243 125-506 187-262 63-544 63-428 0-642-131t-214-394q0-200 153-314t616-217l197-44q612-131 870-370t258-667q0-488-386-773Q2250-91 1575-91q-281 0-586 55T347 128v594q319-166 628-249 309-82 613-82 406 0 624 139 219 139 219 392 0 234-158 359-157 125-692 241l-200 47q-534 112-772 345-237 233-237 639 0 494 350 762 350 269 994 269 318 0 599-47 282-46 519-140" transform="scale(.01563)"/><path id="DejaVuSans-69" d="M603 3500h575V0H603Zm0 1363h575v-729H603Z" transform="scale(.01563)"/><path id="DejaVuSans-67" d="M2906 1791q0 625-258 968-257 344-723 344-462 0-720-344-258-343-258-968 0-622 258-966t720-344q466 0 723 344 258 344 258 966m575-1357q0-893-397-1329-396-436-1215-436-303 0-572 45t-522 139v559q253-137 500-202 247-66 503-66 566 0 847 295t281 892v285q-178-310-456-463T1784 0Q1141 0 747 490 353 981 353 1791q0 812 394 1302 394 491 1037 491 388 0 666-153t456-462v531h575z" transform="scale(.01563)"/><path id="DejaVuSans-6e" d="M3513 2113V0h-575v2094q0 497-194 743-194 247-581 247-466 0-735-297-269-296-269-809V0H581v3500h578v-544q207 316 486 472 280 156 646 156 603 0 912-373 310-373 310-1098" transform="scale(.01563)"/><path id="DejaVuSans-71" d="M947 1747q0-634 261-995t717-361 718 361q263 361 263 995t-263 995q-262 361-718 361t-717-361-261-995M2906 525q-181-312-458-464-276-152-664-152-634 0-1033 506-398 507-398 1332t398 1331q399 506 1033 506 388 0 664-152 277-151 458-463v531h575v-4831h-575z" transform="scale(.01563)"/></defs><use xlink:href="#DejaVuSans-4e" id="use41"/><use xlink:href="#DejaVuSans-75" id="use42" x="74.805"/><use xlink:href="#DejaVuSans-6d" id="use43" x="138.184"/><use xlink:href="#DejaVuSans-62" id="use44" x="235.596"/><use xlink:href="#DejaVuSans-65" id="use45" x="299.072"/><use xlink:href="#DejaVuSans-72" id="use46" x="360.596"/><use xlink:href="#DejaVuSans-6f" id="use48" x="433.496"/><use xlink:href="#DejaVuSans-66" id="use49" x="494.678"/><use xlink:href="#DejaVuSans-66" id="use51" x="561.67"/><use xlink:href="#DejaVuSans-61" id="use52" x="596.875"/><use xlink:href="#DejaVuSans-75" id="use53" x="658.154"/><use xlink:href="#DejaVuSans-6c" id="use54" x="721.533"/><use xlink:href="#DejaVuSans-74" id="use55" x="749.316"/><use xlink:href="#DejaVuSans-79" id="use56" x="788.525"/><use xlink:href="#DejaVuSans-73" id="use58" x="879.492"/><use xlink:href="#DejaVuSans-69" id="use59" x="931.592"/><use xlink:href="#DejaVuSans-67" id="use60" x="959.375"/><use xlink:href="#DejaVuSans-6e" id="use61" x="1022.852"/><use xlink:href="#DejaVuSans-61" id="use62" x="1086.23"/><use xlink:href="#DejaVuSans-74" id="use63" x="1147.51"/><use xlink:href="#DejaVuSans-75" id="use64" x="1186.719"/><use xlink:href="#DejaVuSans-72" id="use65" x="1250.098"/><use xlink:href="#DejaVuSans-65" id="use66" x="1288.961"/><use xlink:href="#DejaVuSans-73" id="use67" x="1350.484"/><use xlink:href="#DejaVuSans-71" id="use69" x="1434.371"/></g></g></g><g id="matplotlib.axis_2"><g id="ytick_1"><g id="line2d_19"><path id="path69" d="M44.37 267.854h275.094" clip-path="url(#p90ecd5b36e)" style="fill:none;stroke:#b0b0b0;stroke-width:.8;stroke-linecap:square"/></g><g id="line2d_20"><defs id="defs69"><path id="m71c181502d" d="M0 0h-3.5" style="stroke:#000;stroke-width:.8"/></defs><g id="g70"><use xlink:href="#m71c181502d" id="use70" x="44.37" y="267.854" style="stroke:#000;stroke-width:.8"/></g></g><g id="text_11"><g id="g73" transform="matrix(.1 0 0 -.1 21.467 271.654)"><defs id="defs70"><path id="DejaVuSans-2e" d="M684 794h660V0H684Z" transform="scale(.01563)"/></defs><use xlink:href="#DejaVuSans-30" id="use71"/><use xlink:href="#DejaVuSans-2e" id="use72" x="63.623"/><use xlink:href="#DejaVuSans-30" id="use73" x="95.41"/></g></g></g><g id="ytick_2"><g id="line2d_21"><path id="path73" d="M44.37 223.526h275.094" clip-path="url(#p90ecd5b36e)" style="fill:none;stroke:#b0b0b0;stroke-width:.8;stroke-linecap:square"/></g><g id="line2d_22"><g id="g74"><use xlink:href="#m71c181502d" id="use74" x="44.37" y="223.526" style="stroke:#000;stroke-width:.8"/></g></g><g id="text_12"><g id="g77" transform="matrix(.1 0 0 -.1 21.467 227.325)"><use xlink:href="#DejaVuSans-30" id="use75"/><use xlink:href="#DejaVuSans-2e" id="use76" x="63.623"/><use xlink:href="#DejaVuSans-32" id="use77" x="95.41"/></g></g></g><g id="ytick_3"><g id="line2d_23"><path id="path77" d="M44.37 179.197h275.094" clip-path="url(#p90ecd5b36e)" style="fill:none;stroke:#b0b0b0;stroke-width:.8;stroke-linecap:square"/></g><g id="line2d_24"><g id="g78"><use xlink:href="#m71c181502d" id="use78" x="44.37" y="179.197" style="stroke:#000;stroke-width:.8"/></g></g><g id="text_13"><g id="g81" transform="matrix(.1 0 0 -.1 21.467 182.996)"><use xlink:href="#DejaVuSans-30" id="use79"/><use xlink:href="#DejaVuSans-2e" id="use80" x="63.623"/><use xlink:href="#DejaVuSans-34" id="use81" x="95.41"/></g></g></g><g id="ytick_4"><g id="line2d_25"><path id="path81" d="M44.37 134.869h275.094" clip-path="url(#p90ecd5b36e)" style="fill:none;stroke:#b0b0b0;stroke-width:.8;stroke-linecap:square"/></g><g id="line2d_26"><g id="g82"><use xlink:href="#m71c181502d" id="use82" x="44.37" y="134.869" style="stroke:#000;stroke-width:.8"/></g></g><g id="text_14"><g id="g85" transform="matrix(.1 0 0 -.1 21.467 138.668)"><use xlink:href="#DejaVuSans-30" id="use83"/><use xlink:href="#DejaVuSans-2e" id="use84" x="63.623"/><use xlink:href="#DejaVuSans-36" id="use85" x="95.41"/></g></g></g><g id="ytick_5"><g id="line2d_27"><path id="path85" d="M44.37 90.54h275.094" clip-path="url(#p90ecd5b36e)" style="fill:none;stroke:#b0b0b0;stroke-width:.8;stroke-linecap:square"/></g><g id="line2d_28"><g id="g86"><use xlink:href="#m71c181502d" id="use86" x="44.37" y="90.54" style="stroke:#000;stroke-width:.8"/></g></g><g id="text_15"><g id="g89" transform="matrix(.1 0 0 -.1 21.467 94.34)"><use xlink:href="#DejaVuSans-30" id="use87"/><use xlink:href="#DejaVuSans-2e" id="use88" x="63.623"/><use xlink:href="#DejaVuSans-38" id="use89" x="95.41"/></g></g></g><g id="ytick_6"><g id="line2d_29"><path id="path89" d="M44.37 46.211h275.094" clip-path="url(#p90ecd5b36e)" style="fill:none;stroke:#b0b0b0;stroke-width:.8;stroke-linecap:square"/></g><g id="line2d_30"><g id="g90"><use xlink:href="#m71c181502d" id="use90" x="44.37" y="46.211" style="stroke:#000;stroke-width:.8"/></g></g><g id="text_16"><g id="g93" transform="matrix(.1 0 0 -.1 21.467 50.01)"><use xlink:href="#DejaVuSans-31" id="use91"/><use xlink:href="#DejaVuSans-2e" id="use92" x="63.623"/><use xlink:href="#DejaVuSans-30" id="use93" x="95.41"/></g></g></g><g id="text_17"><g id="g112" transform="matrix(0 -.1 -.1 0 15.387 200.377)"><defs id="defs93"><path id="DejaVuSans-53" d="M3425 4513v-616q-359 172-678 256-319 85-616 85-515 0-795-200t-280-569q0-310 186-468 186-157 705-254l381-78q706-135 1042-474t336-907q0-679-455-1029Q2797-91 1919-91q-331 0-705 75-373 75-773 222v650q384-215 753-325 369-109 725-109 540 0 834 212 294 213 294 607 0 343-211 537t-692 291l-385 75q-706 140-1022 440-315 300-315 835 0 619 436 975t1201 356q329 0 669-60 341-59 697-177" transform="scale(.01563)"/><path id="DejaVuSans-63" d="M3122 3366v-538q-244 135-489 202t-495 67q-560 0-870-355-309-354-309-995t309-996q310-354 870-354 250 0 495 67t489 202V134Q2881 22 2623-34q-257-57-548-57-791 0-1257 497-465 497-465 1341 0 856 470 1346 471 491 1290 491 265 0 518-55 253-54 491-163" transform="scale(.01563)"/><path id="DejaVuSans-70" d="M1159 525v-1856H581v4831h578v-531q182 312 458 463 277 152 661 152 638 0 1036-506 399-506 399-1331T3314 415Q2916-91 2278-91q-384 0-661 152-276 152-458 464m1957 1222q0 634-261 995t-717 361q-457 0-718-361t-261-995 261-995 718-361q456 0 717 361t261 995" transform="scale(.01563)"/></defs><use xlink:href="#DejaVuSans-53" id="use94"/><use xlink:href="#DejaVuSans-75" id="use95" x="63.477"/><use xlink:href="#DejaVuSans-63" id="use96" x="126.855"/><use xlink:href="#DejaVuSans-63" id="use97" x="181.836"/><use xlink:href="#DejaVuSans-65" id="use98" x="236.816"/><use xlink:href="#DejaVuSans-73" id="use99" x="298.34"/><use xlink:href="#DejaVuSans-73" id="use100" x="350.439"/><use xlink:href="#DejaVuSans-70" id="use102" x="434.326"/><use xlink:href="#DejaVuSans-72" id="use103" x="497.803"/><use xlink:href="#DejaVuSans-6f" id="use104" x="536.666"/><use xlink:href="#DejaVuSans-62" id="use105" x="597.848"/><use xlink:href="#DejaVuSans-61" id="use106" x="661.324"/><use xlink:href="#DejaVuSans-62" id="use107" x="722.604"/><use xlink:href="#DejaVuSans-69" id="use108" x="786.08"/><use xlink:href="#DejaVuSans-6c" id="use109" x="813.863"/><use xlink:href="#DejaVuSans-69" id="use110" x="841.646"/><use xlink:href="#DejaVuSans-74" id="use111" x="869.43"/><use xlink:href="#DejaVuSans-79" id="use112" x="908.639"/></g></g></g><g id="line2d_31"><path id="path112" d="M44.37 267.854h9.503l.328-.626h2.95l.163-.313h1.147l.164-.313h.164l.164-.313h3.768l.164-.313h.655l.328-.626h.328l.327-.626h.82l.163-.626h.492l.164-.313H67.8l.164-.313.164-.626h.164l.328-.627h.327l.82-1.565h.491l.328-.939h.983l.164-.313h.164l.327-.94h.492l.164-.312h.491l.164-.94h1.31l.492-.939.328-.939.164-.313h.328l.164-.939h.163l.164-.313.492-1.565.164-.313h.327l.164-.313h.328l.164-.314h.164l.163-.313h.983l.328-1.252.164-.313h.328l.327-.626h.164l.164-.313h1.147l.328-1.565h.164l.327-.94.328-.626.164-.626h.164l.491-2.191h.164l.328-.626h.328l.163-.313.328-.94h.492l.819-2.817.491-.94.328-.938.164-.313h.164l.327-.626h.164l.328-2.192.82-2.817.163-.313h.492l.327-1.253h.492l.164-.313.655-2.191h.82l.491-.94.328-1.251.327-.627h.164l.164-.313h.164l.164-.313.491-2.191h.164l1.147-4.07h.82l.163-.939h.328l.82-1.565h.163l.328-.626h.164l.491-1.566.164-.313.491-2.191h.164l.656-2.817.164-1.253h.163l.164-.313.82-3.13h.163l.983-3.757h.164l.164-.313h.164l.164-.313h.164l.491-2.191.328-.627.164-1.565.164-.313h.163l.656-2.191.164-.313h.164l.327-1.566h.164l.164-.313.328-1.565.163-.313.328-.94h.328l.164-.312.327-.94.164-.312.164-.627h.164l.164-.313h.164l.491-1.565h.164l.655-1.252.164-.626h.164l.164-.313.164-.626h.491l.328-.627h.164l1.31-2.504.656-2.191.164-.313.492-1.879h.163l.164-.626h.328l.164-1.252h.164l.327-.626h.328l.164-.313.164-.94h.164l.163-.939h.164l.492-1.878h.328l.163-.313.164-.94h.164l.164-.312h.164l.327-.626h.328l.164-.313h.492l.163-.313h.164l.164-.313.328-1.253h.327l.164-.313h.164l.164-.626h.164l.164-.313h.327l.164-.313.492-1.878h.164l.164-.94h.163l.164-.626h.164l.492-.939.327-1.252.328-.94.164-.312.164-.626h.164l.327-.94.328-.626.655-2.191.164-.313.164-.626h.655l.164-.313.328-.94h.328l.655-2.19.328-.627.327-.939h.164l.328-.94h.164l.164-.312h.164l.163-.313h.328l.164-.313.164-.626h.164l.327-1.253.164-.313h.164l.328-1.252.491-.94h.164l.656-1.251h.491l.492-1.566.655-1.252h.655l.164-.313h.492l.164-.313.327-.94h.328l.492-.938.327-.94.164-.312h.164l.164-.627h.82l.163-.626h.164l.164-.626h.983l.164-.313h.327l.164-.313h.164l.492-2.191h.327l.328-.626.491-1.566.328-.626h.82l.163-.313.492-1.878h.328l.163-.313h1.147l.164-.313h.164l.328-.94.164-.313h.163l.328-.626h.492l.163-.313.328-.939.328-.626h.328l.327-.626.328-1.565.328-1.566h.655l.164-.626h.164l.164-.313h.491l.164-.626h.164l.164-.94h.164l.163-.312.164-.94h.328l.164-.938h.328l.327-.627h.656l.163-.313.164-.626h.328l.164-.313h.164l.164-.939h.327l.328-.626.328-.94h.163l.492-.938h.655l.164-.313h.328l.328-.627h.327l.164-.313.656-2.504h.163l.164-.313h.164l.492-.94h.164l.327-.625.328-.94.164-.313.491-1.565.164-.313h.492l.327-1.252.328-.626h.164l.328-.626.327-.94.328-.626h1.475l.164-.313h.655l.164-.313h.655l.492-.939.327-.94h.82l.164-.312h.163l.164-.313h.164l.164-.313h.164l.327-.626h.164l.164-.313.164-.627h.164l.328-.626h.327l.164-.313h.164l.164-.313.328-.939h.163l.164-.626h.492l.164-.313h.491l.164-.626h.164l.164-.313h.164l.163-.626h.328l.164-.313h.164l.164-.314h.491l.164-.626h.492l.491-.939h.983l.164-.939h.328l.164-.313h.327l.164-.313h.164l.492-.94h.491l.164-.312h.492l.327-.626h1.311l.328-.627h1.966l.328-.626.163-.626h1.147l.328-.939h.328l.164-.313h.327l.164-.313h.983l.164-.313h.983l.164-.313h.492l.491-.94.164-.625h.655l.164-.313h.328l.164-.314h1.802l.164-.313h.164l.655-1.252h.656l.163-.313h.656l.164-.313.164-.626h.327l.164-.313h.655l.164-.313h.164l.164-.313h1.147l.164-.313h1.638l.164-.313h1.147l.164-.313h.164l.164-.313h.327l.164-.313h.656l.163-.313h.984l.163-.314h.492l.164-.313h.655l.328-.626h.491l.164-.626h.164l.164-.313h1.638l.164-.313h.82l.163-.626h.983l.164-.313h1.639l.164-.313h.164l.327-.626h3.277l.164-.313h1.639l.163-.313h3.769l.164-.313h3.113l.164-.313h.327l.164-.314h2.13l.164-.313h.164l.164-.313h1.474l.164-.313h.328l.164-.626h1.802l.164-.313h.82l.163-.313h1.475l.164-.313h1.474l.164-.313h2.95l.163-.313h1.147l.164-.313h2.13l.164-.313h3.768l.164-.313h1.311l.164-.313h2.622l.163-.313h4.752l.164-.313h6.062l.164-.313h2.13l.164-.314h3.769l.163-.313h32.606" clip-path="url(#p90ecd5b36e)" style="fill:none;stroke:#1f77b4;stroke-width:1.5;stroke-linecap:square"/></g><g id="patch_3"><path id="path113" d="M44.37 267.854V36.115" style="fill:none;stroke:#000;stroke-width:.8;stroke-linecap:square;stroke-linejoin:miter"/></g><g id="patch_4"><path id="path114" d="M319.464 267.854V36.115" style="fill:none;stroke:#000;stroke-width:.8;stroke-linecap:square;stroke-linejoin:miter"/></g><g id="patch_5"><path id="path115" d="M44.37 267.854h275.094" style="fill:none;stroke:#000;stroke-width:.8;stroke-linecap:square;stroke-linejoin:miter"/></g><g id="patch_6"><path id="path116" d="M44.37 36.115h275.094" style="fill:none;stroke:#000;stroke-width:.8;stroke-linecap:square;stroke-linejoin:miter"/></g><g id="legend_1"><g id="patch_7"><path id="path117" d="M227.198 262.854h85.266q2 0 2-2v-13.678q0-2-2-2h-85.266q-2 0-2 2v13.678q0 2 2 2z" style="opacity:.8;fill:#fff;stroke:#ccc;stroke-linejoin:miter"/></g><g id="line2d_32"><path id="path118" d="M229.198 253.275h20" style="fill:none;stroke:#1f77b4;stroke-width:1.5;stroke-linecap:square"/></g><g id="text_18"><g id="g127" transform="matrix(.1 0 0 -.1 257.198 256.775)"><use xlink:href="#DejaVuSans-53" id="use118"/><use xlink:href="#DejaVuSans-69" id="use119" x="63.477"/><use xlink:href="#DejaVuSans-6d" id="use120" x="91.26"/><use xlink:href="#DejaVuSans-75" id="use121" x="188.672"/><use xlink:href="#DejaVuSans-6c" id="use122" x="252.051"/><use xlink:href="#DejaVuSans-61" id="use123" x="279.834"/><use xlink:href="#DejaVuSans-74" id="use124" x="341.113"/><use xlink:href="#DejaVuSans-69" id="use125" x="380.322"/><use xlink:href="#DejaVuSans-6f" id="use126" x="408.105"/><use xlink:href="#DejaVuSans-6e" id="use127" x="469.287"/></g></g></g></g></g><defs id="defs127"><clipPath id="p90ecd5b36e"><path id="rect127" d="M44.37 36.115h275.094v231.739H44.37Z"/></clipPath></defs><text xml:space="preserve" id="text1" x="34.937" y="8.056" style="font-size:13.295px;fill:#000;stroke-width:.997118"><tspan id="tspan1" x="34.937" y="8.056" style="font-size:13.295px;stroke-width:.997118">SPHINCS-PLUS Attack Performance</tspan></text></svg>